<?xml version="1.0" encoding="UTF-8"?>
<!DOCTYPE svg PUBLIC "-//W3C//DTD SVG 1.1//EN" "http://www.w3.org/Graphics/SVG/1.1/DTD/svg11.dtd">
<!-- Creator: CorelDRAW -->
<svg xmlns="http://www.w3.org/2000/svg" xml:space="preserve" width="1964px" height="1056px" style="shape-rendering:geometricPrecision; text-rendering:geometricPrecision; image-rendering:optimizeQuality; fill-rule:evenodd; clip-rule:evenodd"
viewBox="0 0 2602.81 1399.44"
 xmlns:xlink="http://www.w3.org/1999/xlink">
 <defs>
  <style type="text/css">
   <![CDATA[
    .str0 {stroke:#FEFEFE;stroke-width:1.19256}
    .fil1 {fill:red}
    .fil0 {fill:#FEFEFE;fill-rule:nonzero}
   ]]>
  </style>
 </defs>
 <g id="Layer_x0020_1">
  <metadata id="CorelCorpID_0Corel-Layer"/>
  <path class="fil0" d="M-0 915.777l0 -910.362 358.882 0 0 308.311 91.9414 0 0 -308.311 358.882 0 0 910.362 -358.882 0 0 -394.64 -91.9414 0 0 394.64 -358.882 0zm1252.6 -702.952l0 128.748 39.8381 0c18.6881,0 32.0896,-4.67634 40.0212,-14.2027 7.92693,-9.53266 11.8959,-25.9734 11.8959,-49.3332 0,-24.4788 -3.78427,-41.4783 -11.5203,-51.0093 -7.74382,-9.53266 -21.3331,-14.2027 -40.3968,-14.2027l-39.8381 0zm91.7552 702.952l0 -310.365c0,-24.1094 -3.78427,-41.1089 -11.5203,-50.64 -7.74382,-9.71733 -21.3331,-14.5737 -40.3968,-14.5737l-39.8381 0 0 375.578 -358.884 0 0 -910.362 581.658 0c83.4417,0 142.908,16.821 178.776,50.4522 35.6829,33.4496 53.6183,88.7565 53.6183,165.739 0,61.2917 -11.3325,108.007 -34.3589,139.958 -22.8433,31.9519 -60.7908,54.3726 -113.838,67.641 53.047,12.3294 91.1855,38.1165 114.403,77.1721 23.2221,39.0509 34.9286,97.3502 34.9286,175.083l0 234.316 -364.548 0zm663.96 6.53874c-73.4364,0 -129.313,-14.5721 -167.451,-43.5363 -38.1369,-28.9595 -57.2006,-71.5677 -57.2006,-127.809l0 -164.622 367.376 0 0 64.0946c0,22.6101 3.39927,38.8662 10.3809,49.1423 6.9879,10.2761 18.3204,15.3217 33.8002,15.3217 15.8539,0 27.371,-5.4213 34.5483,-16.4407 7.17258,-10.841 10.7612,-28.9642 10.7612,-54.1926 0,-28.4008 -3.40396,-48.2079 -10.1962,-59.603 -6.79853,-11.2151 -23.9827,-22.4255 -51.1643,-33.2618l-248.824 -99.7823c-57.2006,-22.9795 -95.9041,-47.6492 -116.287,-74.366 -20.2078,-26.5368 -30.3946,-63.1588 -30.3946,-109.5l0 -97.5396c0,-55.681 19.0638,-98.0998 57.2006,-126.875 38.1385,-28.9595 94.0151,-43.3469 167.451,-43.3469l370.404 0c73.4364,0 129.128,14.3874 167.076,43.3469 37.9428,28.7748 57.0128,71.1937 57.0128,126.875l0 108.007 -364.548 0 0 -11.586c0,-19.9965 -3.96268,-35.3183 -11.8959,-45.5943 -7.92693,-10.4607 -19.4441,-15.6974 -34.5483,-15.6974 -12.8365,0 -23.2174,3.92669 -31.1459,11.96 -7.93162,8.03335 -11.8959,18.8744 -11.8959,32.3275 0,13.2684 3.58864,23.9185 10.7612,32.1365 7.17258,8.22272 25.1079,18.1294 53.9923,29.8985l289.786 120.895c36.8191,15.6974 62.6799,37.7472 77.4053,65.9633 14.7255,28.2145 22.089,71.0027 22.089,128.368l0 100.527c0,66.8961 -18.1247,116.038 -54.5573,147.616 -36.2495,31.5778 -92.6958,47.2736 -169.531,47.2736l-370.404 0z"/>
  <path class="fil1" d="M26.8107 888.965l0 -856.737 305.261 0 0 308.311 145.563 0 0 -308.311 305.261 0 0 856.737 -305.261 0 0 -394.64 -145.563 0 0 394.64 -305.261 0zm1198.98 -702.952l0 182.371 67.0651 0 8.19142 -0.253536 8.35418 -0.892073 8.14916 -1.55095 7.92849 -2.33817 7.67809 -3.20833 7.30561 -4.20683 6.73437 -5.21002 5.91116 -6.14278 4.98152 -6.93 3.96894 -7.48402 3.08313 -7.80642 2.31626 -8.12725 1.70433 -8.44965 1.14561 -8.83622 0.660447 -9.21965 0.20502 -9.66882 -0.194065 -9.98026 -0.622886 -9.46849 -1.08301 -9.01463 -1.60417 -8.59833 -2.20671 -8.24307 -2.95949 -7.95353 -3.86408 -7.61079 -4.94083 -7.12563 -5.98471 -6.30711 -6.80792 -5.29297 -7.35725 -4.21309 -7.7579 -3.22868 -7.99735 -2.31313 -8.18985 -1.55095 -8.44026 -0.881118 -8.29158 -0.264492 -67.0807 0zm145.378 702.952l0 -283.822 -0.18937 -9.5843 -0.622886 -9.38398 -1.0877 -8.95203 -1.60417 -8.55451 -2.2114 -8.22272 -2.96106 -7.92223 -3.85782 -7.59983 -4.86101 -7.00981 -5.84855 -6.28051 -6.77193 -5.39313 -7.35725 -4.32264 -7.76886 -3.32571 -8.03805 -2.39608 -8.26967 -1.61982 -8.50286 -0.907723 -8.32914 -0.280142 -67.0964 0 0 375.577 -305.261 0 0 -856.737 554.744 0 7.51063 0.0579065 7.25709 0.131463 7.11467 0.242581 6.93469 0.322398 6.79384 0.427256 6.6389 0.507073 6.49648 0.611931 6.32902 0.680792 6.16469 0.780955 6.01601 0.865467 5.87516 0.960935 5.69988 1.03449 5.53085 1.1237 5.38843 1.20978 5.24132 1.29272 5.06134 1.36158 4.90327 1.45079 4.75459 1.52591 4.61843 1.61043 4.43845 1.67303 4.29134 1.75128 4.14892 1.82171 3.98459 1.88431 3.81087 1.94691 3.69349 2.03142 3.54169 2.08463 3.39927 2.1535 3.24589 2.20201 3.11912 2.2787 2.97671 2.32878 2.83898 2.39608 2.54945 2.29591 5.31018 5.35087 4.8391 5.61536 4.56522 6.10209 4.27569 6.59195 4.00494 7.13032 3.70601 7.64679 3.39927 8.19768 3.09252 8.77674 2.77638 9.35737 2.42738 9.91766 2.07994 10.5077 1.71998 11.0789 1.35689 11.6689 0.970325 12.2292 0.59628 12.8036 0.19563 13.4061 -0.120508 10.6454 -0.37561 10.2964 -0.616626 9.9114 -0.867032 9.5264 -1.09709 9.15235 -1.33498 8.7251 -1.56191 8.33853 -1.7998 7.95353 -2.00012 7.57949 -2.21766 7.16162 -2.41173 6.76097 -2.61831 6.36971 -2.80142 6.01758 -2.97671 5.61067 -3.15199 5.25071 -3.38205 4.97213 -3.58394 4.73425 -3.84217 4.51201 -4.14892 4.36959 -4.49166 4.23813 -4.82815 4.11293 -5.15211 3.93608 -5.5199 3.81713 -5.92211 3.68254 -6.28677 3.55264 -6.64985 3.38831 -7.03016 3.23494 -7.43551 3.07217 -7.83772 2.9188 -8.21803 2.74508 -8.59833 2.5698 -109.609 28.9971 109.794 27.7294 8.3667 2.47433 7.98483 2.73412 7.59983 2.97201 7.23674 3.23024 6.87053 3.45717 6.49805 3.6841 6.13183 3.90947 5.82195 4.15988 5.4839 4.38055 5.17246 4.62313 4.85475 4.85632 4.58244 5.11925 4.29603 5.37278 4.0112 5.64666 3.84217 6.08018 1.70433 2.9501 1.74189 3.22085 1.69963 3.3351 1.65738 3.47282 1.62451 3.60429 1.56817 3.7154 1.51496 3.83278 1.46644 3.96268 1.43671 4.12701 1.36628 4.20683 1.30837 4.33829 1.26142 4.48697 1.21447 4.61843 1.1503 4.71703 1.0924 4.85632 1.03449 4.98778 0.98754 5.12394 0.918678 5.24132 0.859207 5.37278 0.802866 5.49955 0.744959 5.61536 0.674532 5.73274 0.611931 5.85325 0.544634 5.98941 0.496118 6.12713 0.422561 6.23981 0.358394 6.34937 0.289532 6.48083 0.233191 6.62325 0.162764 6.71402 0.0954674 6.85018 0.0313008 7.03485 0 207.446 -310.923 0zm588.371 3.9799l-11.0414 -1.4148 -10.5765 -1.72467 -10.1242 -2.02673 -9.68447 -2.31782 -9.19461 -2.59171 -8.73918 -2.86559 -8.26498 -3.12382 -7.83303 -3.40553 -7.38386 -3.64028 -6.95034 -3.90164 -6.52935 -4.13171 -6.12244 -4.37585 -5.68423 -4.59183 -5.26636 -4.79685 -4.86101 -5.01908 -4.47601 -5.25227 -4.11136 -5.49955 -3.76236 -5.75778 -3.41022 -6.02697 -3.07217 -6.32902 -2.72317 -6.6342 -2.39608 -6.98164 -2.04707 -7.33691 -1.71059 -7.68904 -1.33028 -8.049 -0.970325 -8.44965 -0.58689 -8.83622 -0.21128 -9.50449 0 -137.509 313.753 0 0 37.5563 0.184675 9.02559 0.554024 8.8503 0.976585 8.48721 1.43045 8.13351 1.95787 7.83303 2.54945 7.53567 3.2678 7.25709 4.08945 6.90339 5.04569 6.44953 5.92681 5.72179 6.65612 4.82971 7.18823 3.83122 7.55758 2.84994 7.74851 1.91091 7.87998 1.07675 8.01613 0.331788 8.19768 -0.364654 8.1163 -1.155 8.01144 -2.07368 7.71721 -3.06748 7.33065 -4.1004 6.70776 -5.12551 5.93307 -6.00506 4.95022 -6.64516 4.1004 -7.13658 3.2991 -7.67809 2.5698 -8.00674 1.95943 -8.35575 1.45079 -8.75014 0.98754 -9.18365 0.57437 -9.64221 0.17998 -10.0382 -0.037561 -5.775 -0.131463 -5.47294 -0.215976 -5.30392 -0.311443 -5.15681 -0.402215 -4.98778 -0.505508 -4.85945 -0.607236 -4.74051 -0.723048 -4.56522 -0.818516 -4.40089 -0.954674 -4.34455 -1.09866 -4.23813 -1.25516 -4.11606 -1.40384 -4.0112 -1.61512 -3.93764 -1.81545 -3.83122 -2.42894 -4.3915 -5.04569 -6.9879 -6.28051 -6.58099 -6.9613 -5.87047 -7.65305 -5.39782 -8.35418 -5.05195 -9.08819 -4.79685 -9.85506 -4.61374 -10.4279 -4.38055 -248.915 -99.8136 -10.154 -4.18648 -9.61091 -4.16457 -9.1367 -4.17396 -8.67658 -4.19118 -8.20237 -4.20057 -7.74225 -4.20683 -7.26179 -4.20057 -6.80323 -4.20683 -6.31807 -4.18022 -5.84699 -4.15831 -5.37278 -4.13327 -4.90953 -4.08945 -4.4275 -4.02685 -3.9799 -3.9752 -3.52604 -3.88912 -3.09252 -3.82652 -2.82333 -3.9173 -2.69187 -4.17396 -2.52754 -4.40246 -2.38669 -4.65443 -2.20514 -4.87197 -2.04238 -5.1302 -1.87335 -5.40408 -1.69963 -5.66857 -1.51496 -5.91585 -1.33028 -6.19599 -1.13935 -6.4824 -0.951544 -6.75002 -0.732439 -6.9926 -0.538374 -7.28839 -0.327093 -7.56384 -0.117378 -8.00048 0 -97.045 0.21128 -9.38398 0.58063 -8.72353 0.976585 -8.34949 1.32559 -7.96918 1.69963 -7.6014 2.04707 -7.27274 2.39138 -6.91904 2.71691 -6.58099 3.06122 -6.26016 3.40553 -5.98002 3.76705 -5.72648 4.10197 -5.47294 4.46506 -5.1975 4.86571 -4.99874 5.27262 -4.7765 5.69518 -4.58087 6.12713 -4.3649 6.53404 -4.12701 6.9566 -3.89069 7.36821 -3.63559 7.8205 -3.36797 8.28219 -3.12382 8.74544 -2.8562 9.18835 -2.58075 9.66882 -2.28965 10.1227 -2.01108 10.5985 -1.71059 11.0523 -1.4148 11.5203 -1.10335 11.9647 -0.790345 12.4405 -0.480467 13.0415 -0.169024 370.057 0 13.0571 0.169024 12.4295 0.480467 11.9647 0.790345 11.4905 1.10335 11.0461 1.4148 10.5718 1.70433 10.0961 2.01108 9.62656 2.29122 9.17426 2.58075 8.70319 2.84994 8.24933 3.11912 7.77825 3.36797 7.3416 3.63559 6.90965 3.87347 6.48083 4.11762 6.09114 4.36959 5.68423 4.58713 5.23506 4.77024 4.85006 4.99404 4.45567 5.21315 4.1004 5.46825 3.73575 5.71553 3.39927 5.98628 3.05026 6.27425 2.72943 6.59195 2.38043 6.92061 2.04707 7.25709 1.68868 7.61548 1.33654 7.98014 0.95937 8.33384 0.58689 8.72979 0.200325 9.38398 0 80.9032 -311.662 0 -0.148679 -1.88431 -1.18787 -8.19142 -1.74658 -7.93162 -2.33817 -7.67496 -3.01896 -7.39951 -3.73575 -7.06146 -4.47132 -6.54343 -5.1302 -6.00193 -5.92681 -5.44164 -6.59195 -4.66538 -7.12563 -3.78896 -7.47776 -2.86559 -7.74225 -1.97508 -7.87528 -1.119 -7.93788 -0.358394 -6.95034 0.284837 -6.80323 0.845122 -6.71402 1.4727 -6.6029 2.13158 -6.37597 2.83898 -6.05827 3.51038 -5.60441 4.12232 -5.22097 4.73894 -4.69669 5.32583 -4.09101 5.75778 -3.42431 6.15374 -2.77638 6.46049 -2.07994 6.70776 -1.4461 6.82514 -0.818516 6.93 -0.273882 6.98164 0.248841 6.82983 0.723048 6.67646 1.27707 6.58725 1.8311 6.45892 2.45398 6.29772 3.04087 6.01132 3.62463 5.66857 4.34925 5.52616 5.44164 5.38843 6.22729 4.92362 6.78288 4.52923 7.43081 4.34299 8.21803 4.32734 9.04124 4.34925 9.92705 4.44471 10.6298 4.44941 289.501 120.773 6.08018 2.71847 5.71083 2.77012 5.41504 2.86559 5.1349 2.96732 4.88136 3.06591 4.59809 3.14573 4.32264 3.23024 4.07849 3.32414 3.81713 3.39457 3.56673 3.48847 3.33667 3.57299 3.09252 3.6528 2.8875 3.7514 2.65431 3.83278 2.43833 3.93138 2.23175 4.03154 2.10654 4.29134 2.01108 4.66538 1.91561 5.04569 1.81545 5.46825 1.71528 5.89081 1.58852 6.2852 1.45705 6.68742 1.32402 7.08807 1.18787 7.48872 1.0298 7.84868 0.876422 8.24933 0.723048 8.64528 0.57437 9.03028 0.411606 9.38867 0.242581 9.75959 0.079817 10.2385 0 100.205 -0.19563 11.622 -0.585325 10.9208 -0.956239 10.4279 -1.33967 9.94896 -1.69963 9.4904 -2.04707 8.99272 -2.39138 8.50756 -2.73882 8.05996 -3.05652 7.63114 -3.36797 7.15223 -3.68254 6.74532 -4.0065 6.34311 -4.31169 5.95967 -4.64034 5.59345 -4.96118 5.24132 -5.53555 5.11455 -2.64492 2.2427 -2.89689 2.28026 -2.99862 2.22236 -3.12851 2.15819 -3.25685 2.11124 -3.36171 2.03142 -3.46813 1.96413 -3.63089 1.90465 -3.74827 1.8577 -3.86252 1.77319 -3.98459 1.71059 -4.13797 1.63077 -4.26943 1.58382 -4.38681 1.49305 -4.51201 1.42575 -4.69199 1.35532 -4.80311 1.29429 -4.91892 1.19726 -5.05038 1.12996 -5.18811 1.03919 -5.34148 0.97189 -5.46825 0.892073 -5.58406 0.8013 -5.75309 0.723048 -5.8736 0.649492 -5.99097 0.554024 -6.12713 0.475772 -6.29146 0.389695 -6.38067 0.306748 -6.53874 0.21128 -6.66081 0.131463 -6.87679 0.037561 -370.174 0 -13.0305 -0.159634 -12.4295 -0.485162 -11.96 -0.796605 -11.5203 -1.119z"/>
  <path class="fil0 str0" d="M2530.96 300.07c9.57178,0 18.7523,2.38669 27.5322,7.1851 8.80492,4.7812 15.7193,11.6455 20.7399,20.5725 5.02221,8.95516 7.53723,18.3047 7.53723,28.058 0,9.72359 -2.46024,18.9996 -7.38542,27.8045 -4.95022,8.80492 -11.8145,15.6942 -20.6444,20.6194 -8.80492,4.92518 -18.0809,7.38542 -27.7795,7.38542 -9.72985,0 -18.9824,-2.46024 -27.8108,-7.38542 -8.80492,-4.92518 -15.6942,-11.8145 -20.6194,-20.6194 -4.92518,-8.80492 -7.38542,-18.0809 -7.38542,-27.8045 0,-9.75333 2.51345,-19.1029 7.53567,-28.058 5.02221,-8.92699 11.9413,-15.7913 20.7164,-20.5725 8.80492,-4.79841 17.9839,-7.1851 27.5635,-7.1851zm0.0719918 10.9443c-7.68748,0 -15.0479,1.91561 -22.0874,5.74683 -7.04111,3.82652 -12.5829,9.34955 -16.6379,16.5409 -4.07849,7.1851 -6.0974,14.7208 -6.0974,22.5835 0,7.83146 1.99386,15.2951 5.94715,22.3832 3.95173,7.08963 9.47475,12.6314 16.5644,16.6129 7.08807,3.97677 14.5283,5.97063 22.3112,5.97063 7.80798,0 15.2466,-1.99386 22.3363,-5.97063 7.06459,-3.98146 12.5814,-9.52327 16.5644,-16.6129 3.97677,-7.08807 5.97063,-14.5517 5.97063,-22.3832 0,-7.86276 -2.0189,-15.3984 -6.07392,-22.5835 -4.05502,-7.19136 -9.6203,-12.7144 -16.6849,-16.5409 -7.06459,-3.83122 -14.45,-5.74683 -22.1125,-5.74683zm-25.2973 74.7432l0 -59.2242 12.0383 0c11.2714,0 17.5864,0.0485162 18.9276,0.151809 3.98303,0.319268 7.08807,1.11744 9.30729,2.36321 2.2114,1.24421 4.04876,3.13008 5.51677,5.66701 1.49305,2.56354 2.2427,5.39782 2.2427,8.50912 0,4.24908 -1.39602,7.90502 -4.20683,10.9443 -2.78577,3.05809 -6.71402,4.92518 -11.766,5.66857 1.7951,0.671402 3.18486,1.42106 4.15831,2.2114 0.96563,0.79817 2.30843,2.31469 4.00024,4.55114 0.447601,0.57437 1.89057,2.9861 4.38055,7.2164l6.98634 11.9413 -14.8475 0 -4.9737 -9.60309c-3.33667,-6.46675 -6.11618,-10.5452 -8.31036,-12.2136 -2.16289,-1.66833 -4.94866,-2.51345 -8.30254,-2.51345l-3.11286 0 0 24.3301 -12.0383 0zm12.0383 -33.6546l4.87666 0c6.93782,0 11.2401,-0.272317 12.9335,-0.79817 1.66677,-0.544634 2.98453,-1.46801 3.95173,-2.81081 0.99693,-1.34124 1.46801,-2.85776 1.46801,-4.54957 0,-1.66833 -0.471077,-3.13634 -1.41323,-4.39933 -0.948414,-1.29429 -2.29122,-2.21766 -4.05502,-2.78577 -1.74032,-0.550894 -6.04418,-0.823211 -12.885,-0.823211l-4.87666 0 0 16.1669z"/>
  <g id="_290238568">
   <path id="_290238712" class="fil0" d="M194.401 1132.98l-8.17577 13.8021 -12.5782 -7.96605c-3.98459,4.22717 -7.72347,6.9879 -11.2871,8.28063 -5.72961,2.06116 -11.2855,3.24902 -16.7365,3.63402 -5.4166,0.383435 -22.0827,0.734004 -50.0015,1.08301 -23.9357,-0.209715 -38.4014,-0.419431 -43.397,-0.629146 -4.96274,-0.175284 -10.4482,-0.873292 -16.3531,-2.02673 -14.0118,-2.58545 -22.3973,-11.1118 -25.1924,-25.507 -1.9923,-10.3074 -2.97045,-25.3333 -2.97045,-45.0403 0,-18.3094 1.04858,-31.8658 3.1786,-40.7411 3.14573,-13.3827 11.2526,-21.2798 24.3552,-23.6556 10.9709,-2.06116 28.5479,-3.0753 52.7262,-3.0753 14.8507,0 28.7232,0.244146 41.616,0.768435 12.8584,0.524288 21.5584,1.18787 26.1362,1.9923 8.80492,1.50244 15.4798,5.87047 20.056,13.1025 2.7263,4.36803 4.6826,10.7268 5.83603,19.1138 1.15343,8.35105 1.74658,20.1608 1.74658,35.4654 0,18.9041 -1.08301,32.9848 -3.28345,42.2796l14.3248 9.11949zm-83.4057 -53.4602l52.7278 33.7876c1.01258,-7.96605 1.50244,-18.9026 1.50244,-32.7751 0,-14.605 -0.663577,-26.1362 -1.9563,-34.5921 -1.08301,-7.02233 -4.22874,-11.6361 -9.39963,-13.8365 -3.70445,-1.57287 -10.2385,-2.65587 -19.6021,-3.28502 -9.39963,-0.59315 -23.8997,-0.907723 -43.5378,-0.907723 -21.3847,0 -36.2338,0.698008 -44.6209,2.06116 -5.62475,0.873292 -9.71264,2.65587 -12.3341,5.38061 -2.65587,2.6903 -4.40246,6.84862 -5.27575,12.5438 -1.15343,7.61861 -1.74658,18.0997 -1.74658,31.4135 0,14.4312 0.59315,25.5415 1.74658,33.3682 1.15343,7.79233 2.97045,12.9632 5.4166,15.5142 2.93445,2.93602 7.93162,4.78746 14.954,5.62632 7.0239,0.802866 22.0827,1.2223 45.1451,1.2223 22.8511,0 38.331,-0.419431 46.4019,-1.2223 8.10691,-0.838861 13.8021,-2.62144 17.156,-5.34618l-55.2772 -35.3261 8.70006 -13.6268zm89.1713 -25.2629l15.339 0 0 49.233c0,9.08349 0.489858,15.5831 1.43201,19.4973 0.943719,3.9126 2.83116,7.09276 5.62632,9.57335 2.79516,2.37573 6.67333,4.05345 11.6361,5.06603 4.92675,0.979715 11.9146,1.46801 20.9293,1.46801 11.6705,0 20.7211,-0.873292 27.1847,-2.65587 6.46362,-1.78102 11.3215,-4.71703 14.605,-8.80492 2.02673,-2.44616 3.4603,-5.55589 4.22874,-9.25878 0.802866,-3.70445 1.18787,-9.08506 1.18787,-16.109l0 -48.0092 15.339 0 0 97.1373 -15.339 0 0 -14.5361 -0.907723 0c-3.91417,6.21947 -9.08506,10.3778 -15.5847,12.5438 -6.46362,2.13158 -17.2968,3.21459 -32.4261,3.21459 -11.8802,0 -21.2094,-0.732439 -27.9532,-2.16602 -6.77819,-1.43201 -12.0555,-3.80774 -15.8632,-7.16319 -3.49473,-2.96888 -5.94089,-7.12719 -7.33847,-12.3685 -1.39758,-5.24132 -2.09559,-12.8944 -2.09559,-22.9216l0 -53.7403zm151.087 29.1755l-15.9681 0c-0.139289,-1.78102 -0.209715,-3.1786 -0.209715,-4.19274 0,-10.1681 3.80931,-17.0855 11.4608,-20.79 7.65305,-3.66845 21.9779,-5.52146 43.0136,-5.52146 16.4924,0 28.3726,0.734004 35.6047,2.23644 7.23361,1.50244 12.8944,4.36803 17.0167,8.6312 3.38988,3.38988 5.62632,7.40733 6.6389,12.0539 1.01415,4.64817 1.53843,12.7551 1.53843,24.3552l0 51.1893 -15.2701 0 0.314573 -11.3559 -0.838861 0c-3.80774,5.31175 -8.38548,8.73605 -13.7661,10.2729 -5.34618,1.53687 -15.4454,2.3053 -30.3305,2.3053 -16.9807,0 -28.7905,-0.417866 -35.4294,-1.2223 -6.60447,-0.838861 -11.6361,-2.51502 -15.0259,-5.13646 -3.42431,-2.44616 -5.80004,-5.38061 -7.12719,-8.80492 -1.32872,-3.38988 -1.9923,-8.17733 -1.9923,-14.3264 0,-7.47776 1.01258,-13.2434 3.00488,-17.2968 2.02673,-4.01746 5.4166,-7.02233 10.2025,-8.97863 5.17246,-2.27244 17.2968,-3.38988 36.3402,-3.38988 19.9167,0 32.9504,0.59315 39.0994,1.78258 6.11461,1.18787 10.8661,4.08788 14.2215,8.66563l1.32715 0 0 -10.4482c0,-8.52634 -1.53687,-14.6754 -4.61217,-18.4143 -2.72473,-3.35388 -6.88305,-5.62632 -12.4389,-6.81418 -5.55589,-1.18787 -14.6409,-1.78102 -27.2552,-1.78102 -16.5972,0 -27.324,0.97815 -32.2163,2.90002 -4.85632,1.9563 -7.30248,6.21947 -7.30248,12.7535 0,0.349004 0,0.768435 0,1.32715zm39.3091 23.6556c-12.6127,0 -21.4536,0.209715 -26.5196,0.663577 -5.0316,0.455427 -8.6312,1.29272 -10.7268,2.51658 -4.01902,2.37573 -6.04575,6.77819 -6.04575,13.1729 0,6.35876 2.37573,10.6564 7.16319,12.8928 3.87817,1.85301 16.9822,2.76073 39.3091,2.76073 16.3187,0 27.0799,-1.04858 32.3212,-3.18016 5.27575,-2.09559 7.89719,-6.39319 7.89719,-12.8584 0,-6.28833 -2.93602,-10.5171 -8.80648,-12.6831 -5.8689,-2.20201 -17.4001,-3.28502 -34.5921,-3.28502zm76.5571 -95.4252l15.339 0 0 139.731 -15.339 0 0 -139.731zm33.5795 42.5941l15.339 0 0 97.1373 -15.339 0 0 -97.1373zm0 -42.5941l15.339 0 0 18.2045 -15.339 0 0 -18.2045zm47.5913 18.5191l15.339 0 0 24.075 67.9963 0 0 13.1025 -67.9963 0 0 42.1747c0.140854,9.18991 0.385,14.8147 0.734004,16.8774 0.314573,2.02673 1.32872,4.08788 2.93602,6.14904 1.92187,2.37573 4.78589,4.05345 8.62963,5.06603 3.80931,0.979715 9.39963,1.46801 16.7725,1.46801 6.91748,0 11.9146,-0.488292 15.0588,-1.43201 3.14573,-0.943719 5.59189,-2.6903 7.3729,-5.20689 1.15343,-1.78258 1.92187,-3.9126 2.30687,-6.35876 0.383435,-2.44616 0.558719,-6.60447 0.558719,-12.4749l0 -6.14904 15.2701 0 0 6.14904c0,7.44333 -0.350569,13.0681 -1.08301,16.9478 -0.699573,3.84217 -2.06272,7.23205 -4.01902,10.1665 -2.90002,4.22874 -7.16319,7.26805 -12.8239,9.12105 -5.66075,1.85144 -13.5924,2.75917 -23.8293,2.75917 -10.5186,0 -18.7288,-0.837296 -24.6337,-2.54945 -5.90646,-1.71215 -10.3089,-4.50732 -13.1729,-8.38705 -2.09715,-2.90002 -3.52917,-6.18347 -4.29916,-9.95835 -0.732439,-3.73888 -1.11744,-9.43406 -1.11744,-17.0855l0 -47.2767 -23.8653 0 0 -13.1025 23.8653 0 0 -24.075zm85.6765 24.075l18.0293 0 46.8917 84.6624 2.02673 0 43.5378 -84.6624 17.9948 0 -47.2767 90.3936c-5.62475,10.6924 -10.0288,18.3438 -13.2778,22.9216 -3.24902,4.57774 -6.81262,8.21176 -10.6924,10.9725 -3.66845,2.51502 -7.72191,4.2616 -12.0899,5.20532 -4.36646,0.943719 -10.4826,1.43358 -18.4143,1.43358 -3.42431,0 -6.32433,-0.0704268 -8.70006,-0.209715l0 -14.0478c2.44616,0.245711 4.82189,0.350569 7.05833,0.350569 10.1681,0 17.3657,-1.22386 21.5944,-3.70445 4.22717,-2.44616 8.62963,-7.89719 13.2074,-16.3875l-5.20689 0 -54.6825 -96.9276zm185.329 53.4258l18.0997 0c0,1.5713 0.0359959,2.58545 0.104858,3.07374 0.140854,7.86276 0.699573,13.1041 1.67772,15.76 1.01258,2.6903 3.18016,4.71703 6.49961,6.14904 5.20532,2.27087 22.1531,3.38988 50.8748,3.38988 20.8244,0 35.7799,-1.01415 44.8306,-3.0753 8.9442,-1.9923 13.4171,-8.90977 13.4171,-20.79 0,-6.00975 -0.734004,-10.5171 -2.16602,-13.5579 -1.43358,-3.03931 -3.87973,-5.17089 -7.33847,-6.39319 -3.49473,-1.22386 -8.38548,-1.95787 -14.6409,-2.16758 -6.28833,-0.209715 -26.6605,-0.278577 -61.1117,-0.278577 -11.6016,0 -20.8964,-1.08301 -27.8483,-3.25059 -6.95347,-2.13158 -12.2996,-5.55589 -16.0745,-10.2729 -4.43689,-5.59032 -6.6389,-14.1151 -6.6389,-25.507 0,-12.6142 3.52917,-21.7681 10.5531,-27.4289 3.38988,-2.79516 7.19762,-4.92675 11.3559,-6.35876 4.15831,-1.43358 9.99278,-2.58701 17.5065,-3.49473 12.3341,-1.50244 27.0095,-2.23644 44.0261,-2.23644 15.7584,0 27.9172,0.804431 36.5139,2.41173 8.5952,1.6073 15.3045,4.33203 20.0904,8.2462 3.9486,3.21459 6.6389,6.95347 8.10691,11.2511 1.46801,4.2976 2.27087,10.9365 2.41173,19.8807l-18.624 0c0,-1.08301 0,-1.81701 0,-2.16602 0,-6.81262 -0.734004,-11.3904 -2.23644,-13.7317 -2.20201,-3.59959 -6.95347,-6.21947 -14.2919,-7.79233 -7.33691,-1.57287 -18.2734,-2.3413 -32.8095,-2.3413 -18.0653,0 -31.6576,0.699573 -40.6723,2.06272 -9.05063,1.36158 -15.1652,3.59803 -18.3798,6.74219 -3.00488,3.00644 -4.50732,8.00205 -4.50732,14.9555 0,6.2899 0.734004,10.7628 2.23644,13.4171 1.50244,2.65587 4.43845,4.6826 8.80492,6.04575 6.36032,2.02673 18.5895,3.10973 36.6548,3.24902 6.14904,0.0704268 21.3143,0.140854 45.5286,0.209715 10.0632,0.0704268 17.7507,1.04858 23.0969,2.86559 5.34618,1.85144 9.74863,5.0316 13.1369,9.53892 4.22874,5.73118 6.36032,13.9069 6.36032,24.5633 0,10.1681 -1.74815,18.2061 -5.20689,24.075 -4.19274,6.81418 -11.9146,11.3919 -23.2017,13.6972 -11.2855,2.3413 -31.5512,3.49473 -60.8331,3.49473 -15.5142,0 -26.9046,-0.453862 -34.2431,-1.39758 -7.33691,-0.909288 -13.1369,-2.58545 -17.4345,-5.06603 -5.20689,-2.93602 -8.77048,-6.6749 -10.7628,-11.2166 -1.99073,-4.50732 -2.97045,-11.2871 -2.97045,-20.3017 0,-0.419431 0.0359959,-2.51502 0.104858,-6.2539zm169.292 78.6182l0 -132.044 15.3405 0 0 12.4734 0.907723 0c3.35388,-5.5199 8.07091,-9.18991 14.1511,-10.9709 6.08018,-1.81701 16.7381,-2.7263 32.0411,-2.7263 13.1745,0 23.0624,0.489858 29.7358,1.43358 6.6389,0.943719 12.1244,2.6903 16.4235,5.20532 6.67333,3.91417 11.2511,9.22591 13.7317,15.9697 2.44616,6.56847 3.66845,15.6175 3.66845,27.2192 0,14.6754 -2.23644,25.507 -6.74376,32.4605 -4.50732,7.02233 -10.6219,11.6705 -18.275,13.9069 -7.68591,2.27087 -21.0686,3.38831 -40.1824,3.38831 -14.0118,0 -24.039,-0.873292 -30.1192,-2.61988 -6.04575,-1.71215 -10.8676,-5.13646 -14.4312,-10.1681l-0.907723 0 0 46.4723 -15.3405 0zm66.0056 -119.744c-12.3701,0 -21.524,0.383435 -27.5337,1.18787 -6.01132,0.768435 -10.4826,2.16602 -13.4187,4.12232 -3.63402,2.48059 -6.21947,6.04575 -7.82677,10.6924 -1.6073,4.6826 -2.41016,11.1118 -2.41016,19.2876 0,9.60935 0.873292,16.8774 2.61988,21.8041 1.74658,4.89232 4.71703,8.52634 8.94577,10.8316 5.59032,3.0753 16.9118,4.61217 33.9974,4.61217 11.3919,0 19.9871,-0.383435 25.7527,-1.18787 5.76561,-0.768435 10.1321,-2.16602 13.1369,-4.12232 3.70445,-2.48215 6.32433,-6.08018 7.93319,-10.7972 1.6073,-4.75303 2.41016,-11.3215 2.41016,-19.707 0,-9.47006 -0.838861,-16.6332 -2.55102,-21.4191 -1.71215,-4.82189 -4.6826,-8.38705 -8.90977,-10.6924 -5.45103,-3.0753 -16.1778,-4.61217 -32.1459,-4.61217zm132.288 -13.5235c15.2685,0 26.5556,0.455427 33.8236,1.39758 7.26805,0.909288 12.9632,2.58701 17.0511,5.0676 6.14904,3.66845 10.5875,8.90977 13.3122,15.688 2.7263,6.77975 4.08788,16.0385 4.08788,27.6746 0,12.9632 -1.64173,22.8511 -4.92675,29.5949 -2.37573,5.10203 -5.55433,9.11949 -9.57335,11.9851 -3.98303,2.86559 -9.22435,4.92675 -15.6895,6.21947 -6.28833,1.29272 -16.7365,1.9563 -31.3415,1.9563 -13.7677,0 -24.1799,-0.453862 -31.2038,-1.39758 -7.02233,-0.907723 -12.7175,-2.54945 -17.0855,-4.96118 -6.49961,-3.45874 -11.1462,-8.5952 -13.9414,-15.375 -2.79673,-6.81262 -4.19431,-16.3171 -4.19431,-28.5119 0,-13.6612 2.02673,-24.0046 6.04575,-31.0285 4.08788,-7.23205 9.74863,-12.0539 16.9807,-14.5345 7.23361,-2.44616 19.4628,-3.70445 36.6548,-3.77488zm2.44616 13.5235c-10.1681,0 -17.8211,0.383435 -23.0264,1.11744 -5.17246,0.768435 -9.29477,2.13158 -12.3701,4.08788 -3.63402,2.3413 -6.2539,6.00975 -7.89719,11.0069 -1.64173,5.0316 -2.44616,11.8458 -2.44616,20.5114 0,9.8175 1.08457,17.1904 3.28502,22.0483 2.16602,4.89075 5.94089,8.35105 11.2511,10.3762 5.87047,2.27244 17.2968,3.38988 34.2775,3.38988 11.0414,0 19.1827,-0.419431 24.424,-1.2223 5.20689,-0.838861 9.3652,-2.3413 12.4405,-4.61217 3.38831,-2.3773 5.83447,-5.97532 7.30248,-10.7283 1.46801,-4.78589 2.20045,-11.4952 2.20045,-20.1608 0,-10.2369 -1.15187,-17.7507 -3.49317,-22.5021 -2.58545,-5.34618 -6.88461,-8.87534 -12.9288,-10.6579 -6.04418,-1.78102 -17.0511,-2.65431 -33.0192,-2.65431zm80.4352 -12.2996l15.3405 0 0 13.1025 1.01258 0c2.41173,-4.36803 6.04418,-7.82677 10.9725,-10.3418 2.93445,-1.50244 6.81262,-2.55102 11.6001,-3.10973 4.82189,-0.594715 12.0195,-0.874857 21.5584,-0.874857 9.57491,0 16.7021,0.524288 21.3503,1.57287 4.68103,1.08301 8.70006,3.00488 12.0539,5.80004 6.53404,5.66075 9.81906,14.8507 9.81906,27.5337l0 10.0288 -15.7584 0 0 -6.95347c0,-5.38061 -0.350569,-9.46849 -1.08301,-12.2292 -0.699573,-2.76073 -1.9923,-5.0316 -3.84374,-6.81418 -3.87973,-3.59803 -11.9851,-5.41504 -24.2503,-5.41504 -18.5191,0 -30.3633,2.41016 -35.6047,7.19762 -5.20689,4.82189 -7.82677,15.7584 -7.82677,32.8095l0 44.8306 -15.3405 0 0 -97.1373zm132.185 -24.075l15.339 0 0 24.075 67.9963 0 0 13.1025 -67.9963 0 0 42.1747c0.140854,9.18991 0.385,14.8147 0.734004,16.8774 0.314573,2.02673 1.32872,4.08788 2.93602,6.14904 1.92187,2.37573 4.78589,4.05345 8.62963,5.06603 3.80931,0.979715 9.39963,1.46801 16.7725,1.46801 6.91748,0 11.9146,-0.488292 15.0588,-1.43201 3.14573,-0.943719 5.59189,-2.6903 7.3729,-5.20689 1.15343,-1.78258 1.92187,-3.9126 2.30687,-6.35876 0.383435,-2.44616 0.558719,-6.60447 0.558719,-12.4749l0 -6.14904 15.2701 0 0 6.14904c0,7.44333 -0.350569,13.0681 -1.08301,16.9478 -0.699573,3.84217 -2.06272,7.23205 -4.01902,10.1665 -2.90002,4.22874 -7.16319,7.26805 -12.8239,9.12105 -5.66075,1.85144 -13.5924,2.75917 -23.8293,2.75917 -10.5186,0 -18.7288,-0.837296 -24.6337,-2.54945 -5.90646,-1.71215 -10.3089,-4.50732 -13.1729,-8.38705 -2.09715,-2.90002 -3.52917,-6.18347 -4.29916,-9.95835 -0.732439,-3.73888 -1.11744,-9.43406 -1.11744,-17.0855l0 -47.2767 -23.8653 0 0 -13.1025 23.8653 0 0 -24.075zm96.8572 24.075l15.339 0 0 97.1373 -15.339 0 0 -97.1373zm0 -42.5941l15.339 0 0 18.2045 -15.339 0 0 -18.2045zm32.8455 42.5941l15.3405 0 0 14.6409 1.11744 0c3.28502,-6.22103 8.28063,-10.4138 15.0244,-12.5798 6.70933,-2.20201 18.0653,-3.28502 34.0334,-3.28502 13.9414,0 24.2503,0.77 30.9941,2.30687 6.70776,1.53687 11.9851,4.2976 15.7928,8.35105 3.00488,3.18016 5.13646,7.19762 6.32433,12.0195 1.18787,4.78746 1.78258,11.7409 1.78258,20.826l0 54.8578 -15.339 0 0 -48.3237c0,-8.66563 -0.350569,-14.8851 -1.08457,-18.66 -0.698008,-3.77331 -2.16602,-6.9879 -4.33203,-9.57335 -2.61988,-3.00488 -6.56847,-5.13646 -11.9506,-6.39475 -5.34618,-1.25673 -13.3467,-1.88587 -24.0046,-1.88587 -11.8802,0 -21.139,0.873292 -27.7779,2.61988 -6.60447,1.71215 -11.6016,4.57774 -14.9555,8.52634 -2.3053,2.86559 -3.84374,6.08018 -4.54175,9.67821 -0.734004,3.5636 -1.08301,9.92392 -1.08301,19.0778l0 44.9354 -15.3405 0 0 -97.1373zm245.29 0l15.4438 0 0 72.6789c0,15.339 -0.768435,26.939 -2.3413,34.8018 -1.43201,7.37134 -5.34618,13.3827 -11.6705,17.9948 -4.19274,3.00488 -9.88792,5.06603 -17.156,6.14904 -7.26805,1.08301 -18.7633,1.64173 -34.4528,1.64173 -16.2482,0 -28.3022,-1.01258 -36.1289,-3.07374 -7.86276,-2.02673 -13.6972,-5.66075 -17.5065,-10.8316 -1.85144,-2.48215 -3.03931,-4.85788 -3.63402,-7.23361 -0.59315,-2.3413 -0.873292,-5.76561 -0.873292,-10.2729l15.7584 0c0.350569,3.59959 1.01415,6.39475 2.06272,8.31662 1.01258,1.9563 2.75917,3.59803 5.20532,4.96118 5.38217,3.14417 16.5628,4.71703 33.4746,4.71703 14.605,0 25.2284,-0.629146 31.8313,-1.88744 6.6389,-1.25673 11.2871,-3.5636 13.9414,-6.91748 2.09715,-2.7263 3.52917,-5.94089 4.29916,-9.67977 0.732439,-3.70288 1.29272,-10.5171 1.64173,-20.405l-1.04858 0c-4.22717,5.24132 -9.22435,8.66563 -15.0244,10.2385 -5.80004,1.5713 -16.5972,2.33973 -32.3556,2.33973 -13.1041,0 -23.2721,-0.59315 -30.5042,-1.74658 -7.23361,-1.15343 -12.7191,-3.14417 -16.4924,-5.93933 -5.31175,-3.87973 -9.18991,-9.0162 -11.6705,-15.4454 -2.44616,-6.39319 -3.67002,-14.605 -3.67002,-24.5633 0,-21.5584 6.60447,-35.4654 19.8478,-41.7553 4.22717,-1.9563 9.71264,-3.35388 16.3875,-4.12388 6.67333,-0.802866 16.458,-1.18787 29.2803,-1.18787 10.5875,0 18.2405,0.314573 22.992,0.909288 4.71703,0.629146 8.73605,1.81701 12.0195,3.59803 4.01902,2.30687 7.23361,5.38217 9.60935,9.18991l0.907723 0 -0.173719 -12.4734zm-45.3549 12.2996c-18.973,0 -31.5512,1.5713 -37.7707,4.71703 -7.58262,3.87817 -11.3575,13.6612 -11.3575,29.3508 0,15.8977 4.26317,25.892 12.7895,29.9799 5.13646,2.44616 16.5628,3.66845 34.3119,3.66845 19.2876,0 31.5872,-1.67772 36.8285,-4.99717 3.84374,-2.48059 6.53404,-6.00975 8.14134,-10.6564 1.6073,-4.64817 2.41173,-11.2166 2.41173,-19.7414 0,-8.10691 -0.909288,-14.3264 -2.76073,-18.624 -1.85144,-4.29916 -4.99717,-7.47776 -9.43406,-9.60935 -5.59032,-2.7263 -16.6317,-4.08788 -33.1601,-4.08788zm208.706 14.0118l91.6159 0c-0.139289,21.6289 -0.838861,35.6751 -2.13158,42.1731 -1.43201,7.16319 -3.70288,12.5454 -6.77819,16.1778 -3.0753,3.59959 -7.75634,6.46518 -14.1167,8.59676 -8.5952,2.79516 -27.9532,4.19274 -58.0379,4.19274 -28.3382,0 -48.3597,-0.909288 -60.0991,-2.76073 -10.2385,-1.64173 -17.6114,-6.08018 -22.1876,-13.3122 -5.13646,-8.10691 -7.68748,-26.1362 -7.68748,-54.0549 0,-19.3924 1.39758,-34.5217 4.19274,-45.3549 2.65587,-10.3074 8.9802,-17.0511 19.0074,-20.2657 9.99435,-3.21459 29.6309,-4.82189 58.8768,-4.82189 9.64378,0 20.441,0.244146 32.4261,0.768435 11.9506,0.524288 20.1264,1.08301 24.4944,1.67772 8.9442,1.2223 16.2122,4.6826 21.8041,10.3433 3.35388,3.49317 5.69518,7.51219 7.05677,12.0884 1.36315,4.57774 2.13158,11.0429 2.27244,19.358l-19.2531 0c-0.209715,-10.8661 -1.71215,-17.6803 -4.50732,-20.5098 -1.85144,-1.74815 -4.43845,-3.0753 -7.79233,-3.87973 -3.31945,-0.802866 -8.66563,-1.50244 -15.9681,-2.06116 -10.0288,-0.663577 -22.4677,-1.01258 -37.3528,-1.01258 -19.5677,0 -33.6484,0.524288 -42.2796,1.53687 -8.5952,1.01415 -14.2904,2.86559 -17.0855,5.52146 -2.58701,2.48059 -4.36803,6.88305 -5.38217,13.2778 -0.97815,6.39319 -1.46644,16.5972 -1.46644,30.6779 0,20.9653 0.837296,34.6969 2.54945,41.267 1.08457,3.87817 2.79673,6.77819 5.13646,8.66563 2.30687,1.85144 5.8016,3.1786 10.4138,3.9126 9.15392,1.43201 29.141,2.16602 59.9942,2.16602 17.0511,0 29.6653,-0.698008 37.7722,-2.06116 7.3729,-1.2223 12.0539,-3.87817 14.0807,-8.03648 1.9923,-4.12388 3.10973,-13.4171 3.31945,-27.8828l-72.887 0 0 -16.3875zm164.609 -27.5353c15.2685,0 26.5556,0.455427 33.8236,1.39758 7.26805,0.909288 12.9632,2.58701 17.0511,5.0676 6.14904,3.66845 10.5875,8.90977 13.3122,15.688 2.7263,6.77975 4.08788,16.0385 4.08788,27.6746 0,12.9632 -1.64173,22.8511 -4.92675,29.5949 -2.37573,5.10203 -5.55433,9.11949 -9.57335,11.9851 -3.98303,2.86559 -9.22435,4.92675 -15.6895,6.21947 -6.28833,1.29272 -16.7365,1.9563 -31.3415,1.9563 -13.7677,0 -24.1799,-0.453862 -31.2038,-1.39758 -7.02233,-0.907723 -12.7175,-2.54945 -17.0855,-4.96118 -6.49961,-3.45874 -11.1462,-8.5952 -13.9414,-15.375 -2.79673,-6.81262 -4.19431,-16.3171 -4.19431,-28.5119 0,-13.6612 2.02673,-24.0046 6.04575,-31.0285 4.08788,-7.23205 9.74863,-12.0539 16.9807,-14.5345 7.23361,-2.44616 19.4628,-3.70445 36.6548,-3.77488zm2.44616 13.5235c-10.1681,0 -17.8211,0.383435 -23.0264,1.11744 -5.17246,0.768435 -9.29477,2.13158 -12.3701,4.08788 -3.63402,2.3413 -6.2539,6.00975 -7.89719,11.0069 -1.64173,5.0316 -2.44616,11.8458 -2.44616,20.5114 0,9.8175 1.08457,17.1904 3.28502,22.0483 2.16602,4.89075 5.94089,8.35105 11.2511,10.3762 5.87047,2.27244 17.2968,3.38988 34.2775,3.38988 11.0414,0 19.1827,-0.419431 24.424,-1.2223 5.20689,-0.838861 9.3652,-2.3413 12.4405,-4.61217 3.38831,-2.3773 5.83447,-5.97532 7.30248,-10.7283 1.46801,-4.78589 2.20045,-11.4952 2.20045,-20.1608 0,-10.2369 -1.15187,-17.7507 -3.49317,-22.5021 -2.58545,-5.34618 -6.88461,-8.87534 -12.9288,-10.6579 -6.04418,-1.78102 -17.0511,-2.65431 -33.0192,-2.65431zm138.09 -13.5235c15.2685,0 26.5556,0.455427 33.8236,1.39758 7.26805,0.909288 12.9632,2.58701 17.0511,5.0676 6.14904,3.66845 10.5875,8.90977 13.3122,15.688 2.7263,6.77975 4.08788,16.0385 4.08788,27.6746 0,12.9632 -1.64173,22.8511 -4.92675,29.5949 -2.37573,5.10203 -5.55433,9.11949 -9.57335,11.9851 -3.98303,2.86559 -9.22435,4.92675 -15.6895,6.21947 -6.28833,1.29272 -16.7365,1.9563 -31.3415,1.9563 -13.7677,0 -24.1799,-0.453862 -31.2038,-1.39758 -7.02233,-0.907723 -12.7175,-2.54945 -17.0855,-4.96118 -6.49961,-3.45874 -11.1462,-8.5952 -13.9414,-15.375 -2.79673,-6.81262 -4.19431,-16.3171 -4.19431,-28.5119 0,-13.6612 2.02673,-24.0046 6.04575,-31.0285 4.08788,-7.23205 9.74863,-12.0539 16.9807,-14.5345 7.23361,-2.44616 19.4628,-3.70445 36.6548,-3.77488zm2.44616 13.5235c-10.1681,0 -17.8211,0.383435 -23.0264,1.11744 -5.17246,0.768435 -9.29477,2.13158 -12.3701,4.08788 -3.63402,2.3413 -6.2539,6.00975 -7.89719,11.0069 -1.64173,5.0316 -2.44616,11.8458 -2.44616,20.5114 0,9.8175 1.08457,17.1904 3.28502,22.0483 2.16602,4.89075 5.94089,8.35105 11.2511,10.3762 5.87047,2.27244 17.2968,3.38988 34.2775,3.38988 11.0414,0 19.1827,-0.419431 24.424,-1.2223 5.20689,-0.838861 9.3652,-2.3413 12.4405,-4.61217 3.38831,-2.3773 5.83447,-5.97532 7.30248,-10.7283 1.46801,-4.78589 2.20045,-11.4952 2.20045,-20.1608 0,-10.2369 -1.15187,-17.7507 -3.49317,-22.5021 -2.58545,-5.34618 -6.88461,-8.87534 -12.9288,-10.6579 -6.04418,-1.78102 -17.0511,-2.65431 -33.0192,-2.65431zm204.094 -54.8938l0 139.731 -15.1292 0 0 -12.4749 -0.943719 0c-3.66845,5.66075 -8.45591,9.3652 -14.3608,11.0774 -5.9049,1.74658 -16.6677,2.61988 -32.2868,2.61988 -12.9632,0 -22.7807,-0.488292 -29.4556,-1.43201 -6.6389,-0.943719 -12.0899,-2.65587 -16.3171,-5.10203 -6.21947,-3.5636 -10.6579,-8.66563 -13.3122,-15.3045 -2.65587,-6.67333 -3.98459,-15.8632 -3.98459,-27.6026 0,-14.1167 1.95787,-24.6337 5.83603,-31.5183 4.43689,-7.79077 10.4826,-12.8224 18.1341,-15.1292 7.61705,-2.3413 21.9434,-3.49473 42.9791,-3.49473 13.3827,0 22.956,0.874857 28.756,2.65587 5.80004,1.78258 10.3778,5.17089 13.7317,10.2385l1.01415 0 0 -54.2646 15.339 0zm-60.2744 54.8938c-11.4608,0 -20.0216,0.383435 -25.7512,1.18787 -5.69518,0.768435 -10.0288,2.16602 -13.0337,4.12232 -3.70445,2.41173 -6.32433,6.04575 -7.93162,10.9021 -1.6073,4.89232 -2.41173,11.6705 -2.41173,20.4066 0,15.0244 2.76073,24.7386 8.2462,29.2099 5.48703,4.47288 17.4361,6.70933 35.8864,6.70933 11.8802,0 20.79,-0.383435 26.7653,-1.18787 5.97376,-0.768435 10.4122,-2.16602 13.3467,-4.12232 3.70445,-2.51658 6.32433,-6.08018 7.93162,-10.6924 1.6073,-4.61217 2.41173,-11.0069 2.41173,-19.1827 0,-9.67977 -0.873292,-17.0167 -2.62144,-21.9434 -1.74658,-4.96274 -4.71703,-8.59676 -8.9442,-10.9021 -5.38061,-2.93602 -16.7021,-4.43845 -33.8941,-4.50732zm75.2299 50.9436l16.3875 0c0,1.36315 0,2.27244 0,2.76073 0,5.24132 0.558719,9.01463 1.67616,11.2511 1.119,2.27244 3.35545,3.98459 6.70933,5.24132 4.43689,1.57287 17.1904,2.3413 38.2965,2.3413 13.1729,0 22.3269,-0.278577 27.4633,-0.873292 5.17089,-0.594715 8.87534,-1.71215 11.1118,-3.42431 3.0753,-2.30687 4.61217,-5.9049 4.61217,-10.7628 0,-5.8689 -1.85144,-9.85349 -5.52146,-12.0195 -3.70288,-2.13158 -10.4122,-3.1786 -20.1608,-3.10973 -3.0753,0.0704268 -17.8555,-0.104858 -44.3407,-0.524288 -6.88305,-0.139289 -12.4045,-0.663577 -16.5268,-1.64173 -4.12388,-0.943719 -7.54819,-2.48059 -10.2729,-4.61217 -5.20689,-4.01902 -7.79233,-10.7972 -7.79233,-20.3706 0,-10.0992 3.24902,-17.4361 9.7142,-22.0139 3.42431,-2.37573 9.01463,-4.08788 16.807,-5.17089 7.75634,-1.04858 18.973,-1.57287 33.5779,-1.57287 16.2827,0 28.3382,0.873292 36.0601,2.65587 7.75634,1.78102 13.4531,4.92675 17.0511,9.43406 1.78258,2.16602 2.93602,4.47288 3.42431,6.91904 0.524288,2.41016 0.768435,6.49805 0.768435,12.2292l-16.1778 0c-0.0688618,-5.94089 -1.04858,-9.81906 -2.96888,-11.6705 -2.09715,-2.13158 -6.18504,-3.66845 -12.2652,-4.61217 -6.08018,-0.943719 -14.8851,-1.43358 -26.4163,-1.43358 -20.9997,0 -33.7876,1.46801 -38.2605,4.40246 -3.28502,2.16758 -4.92675,5.87047 -4.92675,11.0429 0,5.34618 1.92187,8.83935 5.72961,10.5515 3.80931,1.71215 11.5312,2.44616 23.1313,2.27087 11.4608,-0.209715 26.3115,0.0704268 44.516,0.804431 11.0774,0.419431 19.0434,2.82959 23.9357,7.26805 4.85632,4.43689 7.30248,11.4608 7.30248,21.1046 0,5.80004 -0.838861,10.4826 -2.55102,14.1167 -1.71215,3.59803 -4.47288,6.56847 -8.31662,8.90977 -3.31945,2.02673 -8.80492,3.49473 -16.3515,4.33203 -7.58262,0.874857 -18.5551,1.29272 -32.8799,1.29272 -16.0385,0 -27.9187,-0.488292 -35.6767,-1.43201 -7.75634,-0.943719 -13.4171,-2.65587 -17.0511,-5.13646 -3.66845,-2.44616 -6.2539,-5.4166 -7.72191,-8.87534 -1.46801,-3.49317 -2.20045,-8.35105 -2.20045,-14.5705 0,-0.802866 0.0344309,-2.51502 0.104858,-5.10203zm-1825.47 237.01l18.0997 0c0,1.5713 0.0359959,2.58545 0.104858,3.07374 0.140854,7.86276 0.699573,13.1041 1.67772,15.76 1.01258,2.6903 3.18016,4.71703 6.49961,6.14904 5.20532,2.27087 22.1531,3.38988 50.8748,3.38988 20.8244,0 35.7799,-1.01415 44.8306,-3.0753 8.9442,-1.9923 13.4171,-8.90977 13.4171,-20.79 0,-6.00975 -0.734004,-10.5171 -2.16602,-13.5579 -1.43358,-3.03931 -3.87973,-5.17089 -7.33847,-6.39319 -3.49473,-1.22386 -8.38548,-1.95787 -14.6409,-2.16758 -6.28833,-0.209715 -26.6605,-0.278577 -61.1117,-0.278577 -11.6016,0 -20.8964,-1.08301 -27.8483,-3.25059 -6.95347,-2.13158 -12.2996,-5.55589 -16.0745,-10.2729 -4.43689,-5.59032 -6.6389,-14.1151 -6.6389,-25.507 0,-12.6142 3.52917,-21.7681 10.5531,-27.4289 3.38988,-2.79516 7.19762,-4.92675 11.3559,-6.35876 4.15831,-1.43358 9.99278,-2.58701 17.5065,-3.49473 12.3341,-1.50244 27.0095,-2.23644 44.0261,-2.23644 15.7584,0 27.9172,0.804431 36.5139,2.41173 8.5952,1.6073 15.3045,4.33203 20.0904,8.2462 3.9486,3.21459 6.6389,6.95347 8.10691,11.2511 1.46801,4.2976 2.27087,10.9365 2.41173,19.8807l-18.624 0c0,-1.08301 0,-1.81701 0,-2.16602 0,-6.81262 -0.734004,-11.3904 -2.23644,-13.7317 -2.20201,-3.59959 -6.95347,-6.21947 -14.2919,-7.79233 -7.33691,-1.57287 -18.2734,-2.3413 -32.8095,-2.3413 -18.0653,0 -31.6576,0.699573 -40.6723,2.06272 -9.05063,1.36158 -15.1652,3.59803 -18.3798,6.74219 -3.00488,3.00644 -4.50732,8.00205 -4.50732,14.9555 0,6.2899 0.734004,10.7628 2.23644,13.4171 1.50244,2.65587 4.43845,4.6826 8.80492,6.04575 6.36032,2.02673 18.5895,3.10973 36.6548,3.24902 6.14904,0.0704268 21.3143,0.140854 45.5286,0.209715 10.0632,0.0704268 17.7507,1.04858 23.0969,2.86559 5.34618,1.85144 9.74863,5.0316 13.1369,9.53892 4.22874,5.73118 6.36032,13.9069 6.36032,24.5633 0,10.1681 -1.74815,18.2061 -5.20689,24.075 -4.19274,6.81418 -11.9146,11.3919 -23.2017,13.6972 -11.2855,2.3413 -31.5512,3.49473 -60.8331,3.49473 -15.5142,0 -26.9046,-0.453862 -34.2431,-1.39758 -7.33691,-0.909288 -13.1369,-2.58545 -17.4345,-5.06603 -5.20689,-2.93602 -8.77048,-6.6749 -10.7628,-11.2166 -1.99073,-4.50732 -2.97045,-11.2871 -2.97045,-20.3017 0,-0.419431 0.0359959,-2.51502 0.104858,-6.2539zm170.026 -53.4258l15.339 0 0 97.1373 -15.339 0 0 -97.1373zm0 -42.5941l15.339 0 0 18.2045 -15.339 0 0 -18.2045zm32.8455 42.5941l15.3405 0 0 14.6409 1.11744 0c3.28502,-6.22103 8.28063,-10.4138 15.0244,-12.5798 6.70933,-2.20201 18.0653,-3.28502 34.0334,-3.28502 13.9414,0 24.2503,0.77 30.9941,2.30687 6.70776,1.53687 11.9851,4.2976 15.7928,8.35105 3.00488,3.18016 5.13646,7.19762 6.32433,12.0195 1.18787,4.78746 1.78258,11.7409 1.78258,20.826l0 54.8578 -15.339 0 0 -48.3237c0,-8.66563 -0.350569,-14.8851 -1.08457,-18.66 -0.698008,-3.77331 -2.16602,-6.9879 -4.33203,-9.57335 -2.61988,-3.00488 -6.56847,-5.13646 -11.9506,-6.39475 -5.34618,-1.25673 -13.3467,-1.88587 -24.0046,-1.88587 -11.8802,0 -21.139,0.873292 -27.7779,2.61988 -6.60447,1.71215 -11.6016,4.57774 -14.9555,8.52634 -2.3053,2.86559 -3.84374,6.08018 -4.54175,9.67821 -0.734004,3.5636 -1.08301,9.92392 -1.08301,19.0778l0 44.9354 -15.3405 0 0 -97.1373z"/>
   <path id="_290238616" class="fil0" d="M1084.7 1363.1l15.6535 0c-0.209715,11.8098 -2.90002,20.4066 -8.07091,25.7872 -3.77488,3.98303 -8.84091,6.70933 -15.1997,8.2462 -6.39475,1.53687 -15.8632,2.3053 -28.4086,2.3053 -16.807,0 -29.2099,-0.627581 -37.2824,-1.85144 -8.03648,-1.2223 -14.2215,-3.42431 -18.5191,-6.6389 -9.46849,-7.16319 -14.2215,-20.8604 -14.2215,-41.0557 0,-14.2559 2.06272,-24.9483 6.15061,-32.1115 4.01746,-6.9879 9.81906,-11.7065 17.4001,-14.1871 7.58262,-2.48059 19.9871,-3.73888 37.248,-3.73888 15.5487,0 27.1143,0.804431 34.6969,2.41173 7.58262,1.6073 13.3482,4.40246 17.2968,8.42148 2.79516,2.86402 4.82189,6.21947 6.11461,9.99278 1.25829,3.77331 2.02673,8.80492 2.27087,15.0948l-16.0385 0c-0.209715,-9.11949 -3.21459,-15.1652 -8.9802,-18.0653 -5.76404,-2.90002 -17.5394,-4.33203 -35.3605,-4.33203 -17.4705,0 -28.8969,1.78102 -34.2775,5.31018 -3.5636,2.3413 -6.11461,6.08018 -7.72191,11.2166 -1.6073,5.13646 -2.41173,12.1948 -2.41173,21.139 0,8.45591 0.979715,15.0948 2.90158,19.9871 1.9563,4.89232 5.0316,8.38548 9.18835,10.4826 5.73118,2.93445 18.5895,4.40246 38.5767,4.40246 15.7584,0 26.1002,-1.43201 31.0629,-4.33203 4.92675,-2.90002 7.58262,-9.08506 7.93162,-18.4847zm135.329 5.13646l16.073 0c-0.280142,11.6001 -4.36803,19.707 -12.2652,24.2847 -7.93162,4.61217 -21.6977,6.91748 -41.3703,6.91748 -16.2482,0 -28.5823,-0.627581 -37.0038,-1.88587 -8.41992,-1.25829 -14.7802,-3.38988 -19.0778,-6.39475 -9.81906,-6.95347 -14.7458,-20.7196 -14.7458,-41.2654 0,-14.3968 2.09715,-25.194 6.25546,-32.4261 3.9486,-6.88305 9.67821,-11.5656 17.1215,-13.9774 7.47776,-2.41016 19.9511,-3.63402 37.4217,-3.63402 16.7381,0 28.792,0.874857 36.2354,2.65587 7.44177,1.78258 13.3827,5.20689 17.8195,10.2385 3.66845,4.22717 6.21947,9.15392 7.58262,14.7458 1.36315,5.59032 2.09559,14.1151 2.23644,25.5759l-108.215 0c0.419431,12.0899 2.79516,20.3721 7.16319,24.8794 2.93445,3.03931 7.65148,5.13646 14.0822,6.28833 6.46362,1.119 16.9463,1.67772 31.4823,1.67772 11.0054,0 19.0418,-0.524288 24.1783,-1.53687 5.10203,-1.01415 8.91134,-2.90002 11.4608,-5.62632 1.88744,-2.09559 3.10973,-5.62475 3.56516,-10.5171zm-0.699573 -28.2678c-0.0688618,-9.46849 -2.58545,-16.1074 -7.58262,-19.8463 -3.28345,-2.51658 -7.8612,-4.26317 -13.7661,-5.27731 -5.9049,-0.97815 -14.5705,-1.46644 -25.9624,-1.46644 -9.95835,0 -17.541,0.453862 -22.7807,1.39758 -5.20689,0.907723 -9.29477,2.51502 -12.2308,4.85632 -4.82189,3.73888 -7.61705,10.5171 -8.38548,20.3361l90.7082 0zm157.41 -81.4838l31.2382 0 0 139.731 -18.1341 0 0 -122.226 -6.53404 0 -44.9699 42.2796 -11.2511 -12.4734 49.6509 -47.3112zm74.6352 99.8981l18.0997 0c0,5.27575 0.419431,9.22435 1.18787,11.9506 0.768435,2.6903 2.16758,4.85632 4.15831,6.49805 2.93602,2.44616 7.16319,4.08788 12.7191,4.92675 5.59032,0.804431 15.0604,1.22386 28.443,1.22386 19.1467,0 33.4042,-0.455427 42.7334,-1.32872 9.3292,-0.907723 15.8632,-2.44616 19.6021,-4.71703 2.44616,-1.43201 4.22717,-3.38831 5.31018,-5.87047 1.119,-2.51502 1.92187,-6.53404 2.48215,-12.0539 0.663577,-6.81418 1.01258,-15.2701 1.01258,-25.2973 0,-0.943719 -0.0344309,-2.97045 -0.104858,-6.04575 -2.6903,4.36803 -6.70933,7.89719 -12.0899,10.6579 -3.77331,1.88587 -9.08506,3.1786 -15.9681,3.87817 -6.88305,0.663577 -17.9604,1.01258 -33.1601,1.01258 -18.3094,0 -31.3775,-0.383435 -39.2747,-1.11744 -7.89563,-0.768435 -14.22,-2.27087 -18.973,-4.50732 -5.20532,-2.44616 -9.04906,-6.70933 -11.5296,-12.7895 -2.48215,-6.07862 -3.73888,-14.22 -3.73888,-24.4584 0,-11.0069 1.53687,-19.4268 4.61217,-25.2973 2.37573,-4.43845 5.72961,-7.79233 10.0632,-10.1336 4.33203,-2.3053 10.4122,-3.9486 18.2045,-4.89232 11.1118,-1.29272 25.0532,-1.9563 41.8601,-1.9563 22.9216,0 39.8334,0.97815 50.665,2.97045 8.21176,1.50244 14.8147,5.20532 19.8823,11.1462 3.1786,3.77331 5.34461,9.11949 6.42918,16.0385 1.08301,6.91748 1.64173,18.5535 1.64173,34.8707 0,26.0673 -1.18787,43.1528 -3.59959,51.2942 -2.09559,7.54819 -5.9049,13.0337 -11.4608,16.4235 -5.5199,3.38831 -14.1167,5.59032 -25.7872,6.6029 -10.4466,0.874857 -27.0439,1.32872 -49.8606,1.32872 -17.7507,0 -30.3289,-0.734004 -37.7018,-2.20201 -7.4089,-1.46644 -13.3827,-4.40246 -17.89,-8.77048 -3.0753,-3.00488 -5.13646,-6.46362 -6.18504,-10.3762 -1.04858,-3.9486 -1.64329,-10.2729 -1.78258,-19.009zm87.5984 -84.0348c-26.0657,0 -43.5363,0.699573 -52.4116,2.13158 -5.94089,1.04858 -10.0288,3.18016 -12.3341,6.46362 -2.27244,3.28502 -3.42431,8.70162 -3.42431,16.2482 0,11.6705 2.02673,19.1483 6.04418,22.4333 2.79516,2.3053 7.58262,3.77331 14.3264,4.40246 6.74376,0.59315 21.4536,0.907723 44.131,0.907723 12.7535,0 21.873,-0.314573 27.324,-0.97815 5.45103,-0.629146 9.88949,-1.92187 13.3138,-3.84374 3.66845,-2.09559 6.2539,-4.6466 7.72191,-7.65148 1.46644,-3.00488 2.20045,-7.26805 2.20045,-12.7895 0,-7.58105 -1.04858,-13.1729 -3.10973,-16.8414 -2.09559,-3.63402 -5.72961,-6.21947 -10.9021,-7.72191 -6.00975,-1.85144 -16.9807,-2.76073 -32.8799,-2.76073zm80.5761 -15.8632l154.372 0 0 27.1143 -99.7932 112.617 -24.3896 0 105.454 -118.732 0 -5.0316 -135.644 0 0 -15.9681zm179.25 0l148.748 0 0 15.9681 -130.612 0 0 40.4281c3.42431,-4.54331 7.12719,-7.51219 11.1462,-8.87534 6.42918,-2.27087 20.8244,-3.38988 43.2217,-3.38988 20.2673,0 35.3621,0.663577 45.2844,1.9563 9.92392,1.29429 17.2624,3.56516 21.9434,6.84862 4.85788,3.42431 8.35105,8.17733 10.5186,14.3264 2.13002,6.15061 3.21459,14.4657 3.21459,24.9843 0,12.4734 -1.57287,22.0123 -4.71703,28.5463 -2.65587,5.59032 -6.18504,9.74863 -10.5875,12.4389 -4.40246,2.6903 -10.4482,4.47288 -18.1701,5.27731 -5.13646,0.488292 -20.6507,1.01258 -46.5772,1.64173 -23.7604,-0.419431 -37.8067,-0.734004 -42.1403,-0.97815 -4.33203,-0.245711 -8.77048,-0.909288 -13.3467,-1.9923 -7.16319,-1.64173 -12.7191,-6.00975 -16.5972,-13.1025 -1.64329,-2.93602 -2.76073,-6.18504 -3.31945,-9.7142 -0.594715,-3.5636 -0.97815,-9.60935 -1.18787,-18.1341l17.5394 0c0.104858,6.35876 0.489858,10.8316 1.04858,13.4171 0.594715,2.58545 1.67772,4.75146 3.25059,6.42918 1.74658,2.06116 4.08788,3.5636 6.95347,4.50732 2.86402,0.97815 7.09276,1.71215 12.6831,2.27087 7.58262,0.665142 18.3438,1.01415 32.2508,1.01415 30.2241,0 48.5335,-1.39758 54.8593,-4.19274 3.35388,-1.43358 5.76404,-4.47288 7.23205,-9.05063 1.46801,-4.61217 2.20201,-11.3904 2.20201,-20.3361 0,-7.79233 -0.77,-13.6268 -2.30687,-17.505 -1.53687,-3.87817 -4.26317,-6.88461 -8.14134,-9.01463 -3.14417,-1.64329 -8.6312,-2.76073 -16.4924,-3.38988 -7.82677,-0.594715 -20.8604,-0.909288 -39.0994,-0.909288 -25.1236,0 -40.4281,1.71215 -45.948,5.13646 -2.58545,1.57287 -4.15831,4.43845 -4.71703,8.59676l-18.1357 0 0 -73.2032z"/>
  </g>
 </g>
</svg>
